<svg width="25" height="24" viewBox="0 0 25 24" fill="none" xmlns="http://www.w3.org/2000/svg">
<g clip-path="url(#clip0)">
<path d="M24.0643 2.20551C24.4415 2.20551 24.75 2.51405 24.75 2.89118V2.97796C24.75 3.3551 24.4949 3.83719 24.1831 4.04932L13.311 12.1299C12.9991 12.3421 12.4888 12.3421 12.1769 12.1301L1.31708 4.06144C1.00524 3.84932 0.75 3.36736 0.75 2.99022V2.89132C0.75 2.51418 1.05854 2.20564 1.43568 2.20564H24.0643V2.20551Z" fill="#FAFAFA"/>
<path d="M12.1907 14.4018C12.495 14.6247 12.9929 14.6249 13.2973 14.4021L24.1967 6.42618C24.5011 6.20346 24.75 6.32977 24.75 6.7069V21.1088C24.75 21.4859 24.4415 21.7945 24.0643 21.7945H1.43568C1.05854 21.7945 0.75 21.4859 0.75 21.1088V6.7069C0.75 6.32977 0.998899 6.20359 1.30317 6.42646L12.1907 14.4018Z" fill="#FAFAFA"/>
</g>
<defs>
<clipPath id="clip0">
<rect width="24" height="24" fill="white" transform="translate(0.75)"/>
</clipPath>
</defs>
</svg>
