<svg width="24" height="24" viewBox="0 0 24 24" fill="none" xmlns="http://www.w3.org/2000/svg">
<g clip-path="url(#clip0)">
<path d="M7.94294 18.6281C7.94294 18.7219 7.83629 18.7969 7.70181 18.7969C7.54879 18.8109 7.44214 18.7359 7.44214 18.6281C7.44214 18.5344 7.54879 18.4594 7.68327 18.4594C7.82238 18.4453 7.94294 18.5203 7.94294 18.6281ZM6.50081 18.4172C6.46835 18.5109 6.56109 18.6187 6.7002 18.6469C6.82077 18.6937 6.95988 18.6469 6.9877 18.5531C7.01552 18.4594 6.92742 18.3516 6.78831 18.3094C6.66774 18.2766 6.53327 18.3234 6.50081 18.4172ZM8.5504 18.3375C8.41593 18.3703 8.32319 18.4594 8.3371 18.5672C8.35101 18.6609 8.47157 18.7219 8.61069 18.6891C8.74516 18.6563 8.8379 18.5672 8.82399 18.4734C8.81008 18.3844 8.68488 18.3234 8.5504 18.3375ZM11.6016 0.375C5.16996 0.375 0.25 5.31094 0.25 11.8125C0.25 17.0109 3.48669 21.4594 8.10988 23.025C8.70343 23.1328 8.9121 22.7625 8.9121 22.4578C8.9121 22.1672 8.89819 20.5641 8.89819 19.5797C8.89819 19.5797 5.65222 20.2828 4.97056 18.1828C4.97056 18.1828 4.44194 16.8187 3.68145 16.4672C3.68145 16.4672 2.61956 15.7312 3.75565 15.7453C3.75565 15.7453 4.91028 15.8391 5.54556 16.9547C6.56109 18.7641 8.2629 18.2438 8.92601 17.9344C9.03266 17.1844 9.33407 16.6641 9.66794 16.3547C7.07581 16.0641 4.46048 15.6844 4.46048 11.175C4.46048 9.88594 4.8129 9.23906 5.55484 8.41406C5.43427 8.10938 5.04012 6.85312 5.6754 5.23125C6.64456 4.92656 8.875 6.49688 8.875 6.49688C9.80242 6.23438 10.7994 6.09844 11.7871 6.09844C12.7748 6.09844 13.7718 6.23438 14.6992 6.49688C14.6992 6.49688 16.9296 4.92187 17.8988 5.23125C18.5341 6.85781 18.1399 8.10938 18.0194 8.41406C18.7613 9.24375 19.2157 9.89062 19.2157 11.175C19.2157 15.6984 16.4845 16.0594 13.8923 16.3547C14.319 16.725 14.6806 17.4281 14.6806 18.5297C14.6806 20.1094 14.6667 22.0641 14.6667 22.4484C14.6667 22.7531 14.88 23.1234 15.469 23.0156C20.106 21.4594 23.25 17.0109 23.25 11.8125C23.25 5.31094 18.0333 0.375 11.6016 0.375ZM4.75726 16.5422C4.69698 16.5891 4.71089 16.6969 4.78972 16.7859C4.86391 16.8609 4.97056 16.8938 5.03085 16.8328C5.09113 16.7859 5.07722 16.6781 4.99839 16.5891C4.92419 16.5141 4.81754 16.4812 4.75726 16.5422ZM4.25645 16.1625C4.22399 16.2234 4.27036 16.2984 4.3631 16.3453C4.4373 16.3922 4.53004 16.3781 4.5625 16.3125C4.59496 16.2516 4.54859 16.1766 4.45585 16.1297C4.3631 16.1016 4.28891 16.1156 4.25645 16.1625ZM5.75887 17.8312C5.68468 17.8922 5.7125 18.0328 5.81915 18.1219C5.92581 18.2297 6.06028 18.2438 6.12056 18.1688C6.18085 18.1078 6.15302 17.9672 6.06028 17.8781C5.95827 17.7703 5.81915 17.7562 5.75887 17.8312ZM5.23024 17.1422C5.15605 17.1891 5.15605 17.3109 5.23024 17.4188C5.30444 17.5266 5.42964 17.5734 5.48992 17.5266C5.56411 17.4656 5.56411 17.3438 5.48992 17.2359C5.425 17.1281 5.30444 17.0813 5.23024 17.1422Z" fill="#FAFAFA"/>
</g>
<defs>
<clipPath id="clip0">
<rect width="23" height="24" fill="white" transform="translate(0.25)"/>
</clipPath>
</defs>
</svg>
