<svg width="120" height="120" viewBox="0 0 120 120" fill="none" xmlns="http://www.w3.org/2000/svg">
<path d="M0 60C0 26.8629 26.8629 0 60 0V0C93.1371 0 120 26.8629 120 60V60C120 93.1371 93.1371 120 60 120V120C26.8629 120 0 93.1371 0 60V60Z" fill="url(#paint0_linear)"/>
<path d="M29.69 79.6156C28.5129 80.1646 27.1111 80.2041 25.8931 79.595C23.7968 78.5702 23.0018 76.0556 24.1324 73.9802L31.3514 60.6909C32.2773 58.986 34.2559 58.0568 36.1619 58.4539L47.7338 60.7983L53.3582 50.4279C54.2869 48.7152 56.2627 47.7938 58.1715 48.1831L69.7301 50.5402L75.3517 40.1774C76.2804 38.4648 78.259 37.5357 80.165 37.9327L94.9451 40.9561C97.2665 41.4345 98.6844 43.6522 98.119 45.9247C97.5488 48.1867 95.2212 49.6433 92.9047 49.1754L81.3699 46.8008L75.7532 57.1741C74.8245 58.8867 72.8487 59.8081 70.9399 59.4188L59.3813 57.0618L53.7569 67.4322C52.8282 69.1448 50.8447 70.0635 48.9436 69.6769L37.3668 67.322L31.7291 77.705C31.2672 78.5666 30.5307 79.2235 29.69 79.6156Z" fill="#FAFAFA"/>
<defs>
<linearGradient id="paint0_linear" x1="-6.08227e-06" y1="-7.97202" x2="120" y2="131.329" gradientUnits="userSpaceOnUse">
<stop offset="0.0271195" stop-color="#6C48D3"/>
<stop offset="0.287564" stop-color="#4D4DE2"/>
<stop offset="0.808912" stop-color="#3778FC"/>
<stop offset="0.967351" stop-color="#0370FF"/>
</linearGradient>
</defs>
</svg>
