<svg width="25" height="24" viewBox="0 0 25 24" fill="none" xmlns="http://www.w3.org/2000/svg">
<g clip-path="url(#clip0)">
<path d="M22.033 7.11163C22.0482 7.32482 22.0482 7.53805 22.0482 7.75124C22.0482 14.2537 17.099 21.7461 8.0533 21.7461C5.26648 21.7461 2.67767 20.939 0.5 19.538C0.895953 19.5837 1.27662 19.5989 1.68781 19.5989C3.98727 19.5989 6.10405 18.8223 7.79441 17.4974C5.63197 17.4517 3.81978 16.0355 3.19541 14.0863C3.5 14.1319 3.80455 14.1624 4.12437 14.1624C4.56598 14.1624 5.00764 14.1014 5.41878 13.9949C3.16498 13.538 1.47458 11.5583 1.47458 9.16747V9.10658C2.12937 9.47207 2.89086 9.70049 3.69791 9.73091C2.37303 8.84764 1.50505 7.34005 1.50505 5.63446C1.50505 4.72077 1.74866 3.88321 2.17508 3.15224C4.59641 6.137 8.23602 8.08621 12.3172 8.29944C12.2411 7.93396 12.1954 7.55328 12.1954 7.17257C12.1954 4.46188 14.3883 2.25378 17.1141 2.25378C18.5304 2.25378 19.8095 2.84769 20.708 3.80708C21.8197 3.59389 22.8857 3.18271 23.8299 2.61927C23.4643 3.76142 22.6877 4.72082 21.6674 5.32991C22.6573 5.22336 23.6167 4.94919 24.4999 4.56852C23.83 5.5431 22.9924 6.41108 22.033 7.11163V7.11163Z" fill="#FAFAFA"/>
</g>
<defs>
<clipPath id="clip0">
<rect width="24" height="24" fill="white" transform="translate(0.5)"/>
</clipPath>
</defs>
</svg>
